<svg width="107" height="25" viewBox="0 0 107 25" fill="none" xmlns="http://www.w3.org/2000/svg">
<g clip-path="url(#clip0_2_162)">
<path fill-rule="evenodd" clip-rule="evenodd" d="M19.8896 11.4078C19.1112 10.7077 18.3322 10.0066 17.5535 9.30732C17.3201 9.09762 16.9304 9.07383 16.6922 9.25349C16.2932 9.55413 15.8942 9.8533 15.4966 10.1539C15.1807 10.3928 14.8646 10.6315 14.5483 10.8696L14.8963 12.3459C15.5016 12.9155 16.1074 13.4847 16.7133 14.0546C16.9541 14.2811 17.3414 14.3071 17.5733 14.1107C17.9588 13.784 18.3452 13.4563 18.7322 13.1283C19.1179 12.8013 19.5058 12.4754 19.8924 12.1471C20.1233 11.951 20.1235 11.6181 19.8896 11.4078Z" fill="#F0C846"/>
<path fill-rule="evenodd" clip-rule="evenodd" d="M12.4038 4.72607C11.6243 4.02592 10.8446 3.32558 10.0662 2.62562C9.83373 2.41663 9.43453 2.36275 9.1795 2.5046C8.3332 2.97531 7.4552 3.58566 6.6359 4.04197C6.14976 4.51397 6.65201 4.68438 7.11451 5.19292L7.12545 5.21672C7.72985 5.78536 8.40147 6.28739 9.0061 6.85604C9.03163 6.88003 9.05883 6.90198 9.08754 6.9221L9.42581 7.05931C9.59329 7.08736 9.76357 7.06318 9.89295 6.98074C10.3062 6.71717 10.7207 6.45322 11.1349 6.18894C11.5482 5.92518 11.9611 5.66085 12.3756 5.39709C12.6236 5.23919 12.6379 4.93633 12.4038 4.72607Z" fill="#F0C846"/>
<path fill-rule="evenodd" clip-rule="evenodd" d="M16.2335 8.06803C15.4538 7.36788 14.675 6.66735 13.8961 5.96758C13.6627 5.75807 13.2667 5.71746 13.0203 5.87829C12.6082 6.14762 12.1973 6.41653 11.7854 6.68487C11.3739 6.95269 10.9607 7.22146 10.5491 7.49017C10.5371 7.49792 10.5256 7.50604 10.5149 7.51454L13.0609 8.48709C14.0608 9.02 14.2368 9.60135 14.4107 10.1071C14.6132 9.95714 14.8155 9.80736 15.0181 9.65796C15.4171 9.36341 15.8186 9.06703 16.2194 8.77078C16.4585 8.59409 16.4676 8.27834 16.2335 8.06803Z" fill="#3261A3"/>
<path fill-rule="evenodd" clip-rule="evenodd" d="M23.728 8.70827C22.9459 8.02766 22.1634 7.34763 21.3822 6.66886C21.1481 6.46559 20.753 6.44363 20.51 6.61811C20.1021 6.91119 19.6948 7.20356 19.2882 7.49551C18.8811 7.78789 18.4732 8.08097 18.0678 8.37278C17.8238 8.54853 17.8204 8.86763 18.0566 9.08252C18.844 9.7991 19.6326 10.5164 20.4221 11.2339C20.659 11.4493 21.0493 11.4726 21.2915 11.2857C21.6937 10.9755 22.0979 10.6627 22.5019 10.3519C22.9048 10.0416 23.3099 9.73064 23.7139 9.41914C23.9543 9.23357 23.9624 8.91206 23.728 8.70827Z" fill="#3261A3"/>
<path fill-rule="evenodd" clip-rule="evenodd" d="M16.2678 2.22445C15.4857 1.54399 14.7028 0.865602 13.9221 0.186462C13.6875 -0.01752 13.2936 -0.060111 13.0458 0.0883431C12.6297 0.337749 12.2148 0.587108 11.7995 0.8359C11.3848 1.08417 10.9698 1.33353 10.5546 1.582C10.3073 1.73012 10.2945 2.02632 10.5307 2.24102C11.3194 2.95779 12.1087 3.67438 12.8975 4.39242C13.1337 4.60713 13.5282 4.65245 13.774 4.49276C14.186 4.22494 14.5972 3.9575 15.0089 3.68968C15.4204 3.42261 15.8308 3.15479 16.2441 2.88697C16.4899 2.72742 16.5023 2.42843 16.2678 2.22445Z" fill="#3261A3"/>
<path fill-rule="evenodd" clip-rule="evenodd" d="M19.9977 5.46683C19.2152 4.78694 18.4331 4.10633 17.6522 3.42757C17.4181 3.2243 17.0216 3.19148 16.7766 3.35325C16.3656 3.62475 15.9538 3.89607 15.5431 4.16573C15.1321 4.43559 14.7199 4.70652 14.3096 4.97675C14.0639 5.13866 14.0576 5.44691 14.2935 5.66175C15.081 6.37852 15.8714 7.09529 16.6605 7.81315C16.8965 8.02785 17.2866 8.06161 17.5304 7.88861C17.9377 7.59991 18.345 7.30815 18.7526 7.01965C19.1603 6.73082 19.5683 6.44179 19.9775 6.15164C20.2209 5.97901 20.2318 5.67025 19.9977 5.46683Z" fill="#F0C846"/>
<path fill-rule="evenodd" clip-rule="evenodd" d="M18.4285 18.4828C18.615 18.0012 18.8016 17.5191 18.9883 17.0378C19.0444 16.8933 19.2372 16.6621 19.4149 16.5255C19.713 16.296 20.0108 16.0669 20.308 15.8384C20.605 15.6097 20.9025 15.3808 21.2001 15.1519C21.3777 15.015 21.4592 15.037 21.3808 15.2002C21.1217 15.7419 20.8625 16.2848 20.6028 16.8274C20.5251 16.9902 20.3336 17.2203 20.1776 17.3387C19.9166 17.5368 19.6556 17.7354 19.3955 17.933C19.1347 18.1311 18.8732 18.3297 18.6117 18.5286C18.4559 18.6471 18.3728 18.6269 18.4285 18.4828Z" fill="#3261A3"/>
<path fill-rule="evenodd" clip-rule="evenodd" d="M20.208 13.8882C20.3944 13.4067 20.5811 12.9251 20.7679 12.4433C20.8238 12.2987 21.0577 12.0346 21.2863 11.8553C21.6695 11.5548 22.0524 11.2546 22.4346 10.9546C22.817 10.6549 23.1997 10.3552 23.5818 10.0553C23.811 9.87546 23.9347 9.86087 23.857 10.0235C23.5979 10.5653 23.3381 11.1087 23.0788 11.6507C23.0008 11.8141 22.7686 12.0777 22.5612 12.2397C22.2151 12.5091 21.8692 12.7784 21.5233 13.0479C21.1778 13.3169 20.8314 13.5863 20.4843 13.8569C20.2778 14.0175 20.1524 14.0323 20.208 13.8882Z" fill="#3261A3"/>
<path fill-rule="evenodd" clip-rule="evenodd" d="M19.3183 16.1854C19.5047 15.7039 19.6912 15.2222 19.8779 14.7406C19.934 14.5961 20.1478 14.3473 20.3508 14.1894C20.6917 13.9244 21.032 13.6599 21.3718 13.3958C21.7114 13.1315 22.0517 12.867 22.3913 12.6027C22.5944 12.4448 22.6969 12.4487 22.6188 12.6119C22.3595 13.1536 22.1004 13.6964 21.8408 14.2391C21.7629 14.4019 21.5515 14.6476 21.37 14.7876C21.0668 15.0215 20.7631 15.2559 20.4598 15.4894C20.1563 15.7231 19.8524 15.9573 19.5483 16.1914C19.367 16.3312 19.2624 16.3296 19.3183 16.1854Z" fill="#3261A3"/>
<path fill-rule="evenodd" clip-rule="evenodd" d="M16.4883 18.8788C16.7436 18.6732 16.9989 18.4673 17.2537 18.2618C17.5764 18.0014 17.8987 17.7422 18.2216 17.4822C18.4146 17.3265 18.524 17.3182 18.4655 17.4624C18.2709 17.9425 18.0763 18.4234 17.8815 18.9039C17.8231 19.0481 17.6303 19.2844 17.4525 19.4299C17.2215 19.6188 16.9905 19.8073 16.7596 19.996L16.6239 19.4203C16.6117 19.3687 16.5971 19.3183 16.5802 19.2697L16.4883 18.8788Z" fill="#3261A3"/>
<path fill-rule="evenodd" clip-rule="evenodd" d="M16.7923 16.6509C16.9355 16.2043 17.0793 15.7576 17.2224 15.3123C17.2653 15.1782 17.4893 14.9221 17.718 14.7426C18.1007 14.4425 18.4834 14.1424 18.8658 13.8429C19.2484 13.5428 19.6309 13.2427 20.0136 12.9426C20.2418 12.7637 20.3822 12.7332 20.3236 12.8775C20.1291 13.3576 19.9342 13.8383 19.7395 14.3189C19.6812 14.4632 19.4589 14.7192 19.2456 14.8885C18.8886 15.1711 18.5318 15.454 18.1749 15.7368C17.8185 16.019 17.4611 16.3028 17.104 16.5856C16.8908 16.7542 16.7495 16.7842 16.7923 16.6509Z" fill="#3261A3"/>
<path fill-rule="evenodd" clip-rule="evenodd" d="M16.5385 17.4407C16.5815 17.3069 16.7912 17.0592 17.0016 16.8919C17.3547 16.6114 17.7076 16.3316 18.0598 16.0522C18.4126 15.7722 18.7651 15.4922 19.1177 15.2122C19.3286 15.0445 19.4526 15.0261 19.3942 15.1702C19.2 15.6499 19.005 16.1311 18.8101 16.6118C18.7518 16.7559 18.5447 17.0012 18.3496 17.1581C18.0228 17.4208 17.6958 17.6832 17.3691 17.9461L16.4438 18.6898L16.332 18.2142C16.3925 17.9645 16.4518 17.7111 16.5385 17.4407Z" fill="#3261A3"/>
<path fill-rule="evenodd" clip-rule="evenodd" d="M4.76556 17.7507C4.0264 17.3787 3.28557 17.0059 2.54623 16.6328C2.3234 16.5201 2.19848 16.6308 2.26418 16.873C2.4846 17.6858 2.70317 18.4974 2.92321 19.3086C2.98928 19.5524 3.22209 19.8459 3.44232 19.9648C4.1776 20.3623 4.91456 20.7609 5.65128 21.158C5.87281 21.2772 6.00069 21.1731 5.93611 20.9228C5.71998 20.0858 5.5036 19.2473 5.28766 18.4103C5.22284 18.1598 4.98856 17.8629 4.76556 17.7507ZM9.70152 12.1858C8.95177 11.8748 8.2017 11.5648 7.45313 11.2551C7.22918 11.1627 7.0978 11.303 7.16034 11.562C7.37074 12.433 7.58247 13.3037 7.79439 14.1732C7.85802 14.4338 8.09102 14.7302 8.31497 14.8311C9.0597 15.1666 9.80608 15.4998 10.5515 15.8351C10.7762 15.936 10.9089 15.7975 10.8467 15.53C10.6387 14.6351 10.4318 13.7401 10.2247 12.8437C10.1629 12.5761 9.92581 12.2788 9.70152 12.1858ZM10.7638 16.7468C10.0196 16.4065 9.27437 16.0653 8.52983 15.7242C8.30683 15.6222 8.17673 15.7515 8.23983 16.0122C8.45081 16.8831 8.66159 17.7542 8.87242 18.6233C8.93571 18.8844 9.16886 19.1863 9.39172 19.2968C10.1323 19.6636 10.8734 20.029 11.6151 20.396C11.8381 20.5064 11.9686 20.3773 11.9064 20.1082C11.6997 19.2132 11.4911 18.3184 11.2844 17.4219C11.2222 17.1526 10.9883 16.8497 10.7638 16.7468ZM11.8261 21.3063C11.0875 20.9334 10.3463 20.5624 9.60658 20.1898C9.38542 20.0785 9.25456 20.2002 9.31786 20.4608C9.52997 21.3318 9.74056 22.2029 9.95172 23.0737C10.0148 23.3328 10.2471 23.6416 10.4673 23.7605C11.2026 24.158 11.9393 24.5548 12.6761 24.9537C12.8963 25.0731 13.0279 24.9537 12.9661 24.6861C12.7592 23.7913 12.5517 22.8949 12.3441 22C12.2815 21.7307 12.0494 21.419 11.8261 21.3063ZM6.12709 10.7062C5.37739 10.3954 4.6275 10.0853 3.87872 9.77563C3.65478 9.68308 3.52301 9.81529 3.58742 10.0671C3.80247 10.9076 4.01863 11.7494 4.23442 12.5897C4.29938 12.8419 4.53441 13.1303 4.7576 13.2305C5.50303 13.5649 6.2489 13.901 6.99433 14.2361C7.21899 14.3372 7.34871 14.2055 7.28561 13.9482C7.07317 13.0822 6.86125 12.2148 6.65028 11.349C6.58717 11.0898 6.35142 10.7993 6.12709 10.7062ZM7.21179 15.1192C6.46707 14.7784 5.72234 14.4359 4.97781 14.0946C4.75499 13.9926 4.62435 14.1137 4.68913 14.3675C4.90381 15.2078 5.12127 16.0477 5.33631 16.8901C5.4007 17.142 5.63446 17.4383 5.8569 17.548C6.59646 17.9121 7.33876 18.2799 8.08031 18.6473C8.30218 18.7572 8.43138 18.637 8.36752 18.3764C8.15602 17.5104 7.94335 16.643 7.73238 15.777C7.66927 15.5178 7.4357 15.2216 7.21179 15.1192ZM8.29645 19.5303C7.55547 19.1575 6.8152 18.7816 6.07564 18.4103C5.85448 18.2993 5.72642 18.4155 5.79104 18.6678C6.0059 19.5063 6.22094 20.3483 6.43689 21.1886C6.5017 21.4408 6.73503 21.7436 6.95472 21.8619C7.69054 22.2582 8.42674 22.6583 9.16369 23.0567C9.38485 23.1764 9.5131 23.0635 9.44962 22.8044C9.23755 21.9369 9.02658 21.0726 8.81447 20.2051C8.75118 19.9462 8.51761 19.6415 8.29645 19.5303ZM2.5527 9.22691C1.80318 8.91593 1.05458 8.60552 0.305795 8.29619C0.0805675 8.20326 -0.0482396 8.32886 0.0169042 8.57067C0.236394 9.38391 0.45792 10.1966 0.677225 11.0081C0.742738 11.2497 0.978331 11.532 1.2006 11.6317C1.94568 11.9665 2.69132 12.3033 3.43714 12.6375C3.66126 12.7379 3.79136 12.6137 3.72714 12.3647C3.5108 11.5279 3.29408 10.691 3.07866 9.85236C3.01482 9.60376 2.777 9.32007 2.5527 9.22691ZM3.65997 13.4913C2.9147 13.1501 2.16943 12.8059 1.42582 12.4652C1.20208 12.3627 1.07549 12.4789 1.14119 12.7228C1.36013 13.5356 1.58036 14.347 1.80022 15.1584C1.86629 15.402 2.09947 15.6899 2.32081 15.7993C3.06164 16.1654 3.80321 16.5328 4.54422 16.8986C4.76665 17.0083 4.89585 16.8936 4.83165 16.6446C4.6151 15.8061 4.39875 14.9693 4.18315 14.1323C4.11819 13.8799 3.88205 13.5931 3.65997 13.4913Z" fill="#3261A3"/>
<path fill-rule="evenodd" clip-rule="evenodd" d="M12.6854 9.41139C11.9645 9.11939 11.2441 8.82688 10.5234 8.53507C10.3077 8.44762 9.94878 8.5133 9.73042 8.67932C9.36381 8.95763 8.99829 9.23617 8.63259 9.51357C8.26617 9.79131 7.90028 10.0695 7.53495 10.3471C7.31659 10.5131 7.31659 10.7217 7.53623 10.8104C8.26707 11.1059 8.99792 11.4019 9.72914 11.6981C9.94845 11.7868 10.3051 11.7225 10.5207 11.5552C10.881 11.2756 11.2417 10.9956 11.6031 10.7158C11.9636 10.4365 12.3249 10.1558 12.6854 9.87583C12.9008 9.70835 12.9023 9.49917 12.6854 9.41139Z" fill="#F0C846"/>
<path fill-rule="evenodd" clip-rule="evenodd" d="M5.80943 6.6257C5.0875 6.3337 4.36702 6.04137 3.64618 5.74937C3.43058 5.66211 3.06859 5.72595 2.8428 5.88919C2.46434 6.16272 2.08606 6.43696 1.70889 6.71031C1.33172 6.98352 0.953447 7.25705 0.576276 7.53021C0.35031 7.69382 0.342722 7.89908 0.562215 7.9878C1.29193 8.28329 2.02295 8.57897 2.75508 8.87536C2.97346 8.96389 3.33508 8.90246 3.55827 8.73758C3.93026 8.46239 4.30354 8.1872 4.67535 7.91201C5.04732 7.63683 5.42042 7.36069 5.79389 7.08513C6.01709 6.92062 6.02505 6.71291 5.80943 6.6257Z" fill="#F0C846"/>
<path fill-rule="evenodd" clip-rule="evenodd" d="M9.24744 8.01846C8.52679 7.72646 7.80518 7.43375 7.08547 7.14232C6.86877 7.05436 6.50771 7.1189 6.2847 7.28398C5.91231 7.55954 5.54088 7.83601 5.16892 8.11195C4.79824 8.38695 4.4253 8.66308 4.05443 8.93865C3.83253 9.10372 3.82957 9.31049 4.04924 9.39959C4.77876 9.6947 5.51108 9.99034 6.24211 10.2864C6.4618 10.3753 6.81822 10.3122 7.03772 10.146C7.40451 9.86842 7.7706 9.59139 8.13815 9.31361C8.50419 9.03658 8.87155 8.75808 9.23835 8.47992C9.45657 8.31428 9.46301 8.10586 9.24744 8.01846Z" fill="#3261A3"/>
<path fill-rule="evenodd" clip-rule="evenodd" d="M16.2992 22.4023C16.0827 21.4836 15.8665 20.565 15.6498 19.6465C15.5848 19.3709 15.3565 19.2639 15.1455 19.4071C14.7909 19.6476 14.437 19.8876 14.0838 20.1266C13.7301 20.3662 13.3762 20.6052 13.0233 20.8448C12.8114 20.9887 12.6922 21.3279 12.7568 21.599C12.9717 22.5017 13.1873 23.4059 13.4021 24.3117C13.4665 24.5826 13.6919 24.69 13.9042 24.5509C14.2581 24.3192 14.6127 24.0868 14.9671 23.8544C15.3211 23.6224 15.6752 23.3898 16.0305 23.1565C16.2418 23.0176 16.3642 22.6777 16.2992 22.4023Z" fill="#40669C"/>
<path fill-rule="evenodd" clip-rule="evenodd" d="M14.2336 13.6389C14.0169 12.7202 13.8002 11.8001 13.5842 10.8831C13.5193 10.6075 13.2931 10.5109 13.0827 10.6638C12.7299 10.9203 12.3781 11.1776 12.0257 11.4338C11.6739 11.6897 11.321 11.9453 10.9699 12.2011C10.759 12.3548 10.6396 12.7 10.704 12.9712C10.9187 13.8737 11.1345 14.7795 11.3495 15.6838C11.4137 15.9546 11.6382 16.0551 11.8495 15.9057C12.2014 15.6571 12.5548 15.4086 12.9072 15.1602C13.2601 14.9112 13.6132 14.6611 13.9665 14.4117C14.1769 14.2631 14.2986 13.9141 14.2336 13.6389Z" fill="#40669C"/>
<path fill-rule="evenodd" clip-rule="evenodd" d="M15.2661 18.0213C15.0494 17.1013 14.8327 16.1828 14.6167 15.2655C14.5518 14.9899 14.3247 14.8863 14.1135 15.0347C13.7604 15.2828 13.407 15.5307 13.054 15.7788C12.7015 16.0267 12.3478 16.2737 11.996 16.5214C11.7846 16.6702 11.6656 17.0133 11.7302 17.2845C11.9449 18.1886 12.1601 19.0928 12.3755 19.9969C12.4401 20.268 12.6645 20.3706 12.8763 20.2262C13.2289 19.9857 13.5831 19.7461 13.9368 19.5052C14.2901 19.2645 14.6437 19.024 14.998 18.7827C15.2091 18.6388 15.3309 18.2967 15.2661 18.0213Z" fill="#F0C846"/>
<path d="M33.6258 8.42419H30.6545V19.0539H33.7354V15.6093C34.3765 16.3108 35.049 16.6693 36.0498 16.6693C38.1141 16.6693 39.4434 15.0482 39.4434 12.5077C39.4434 9.92044 38.0517 8.22149 35.9405 8.22149C34.9864 8.22149 34.2045 8.54871 33.6258 9.29702V8.42419ZM34.9864 10.6842C35.8935 10.6842 36.3471 11.292 36.3471 12.5077C36.3471 13.7079 35.8935 14.3313 35.002 14.3313C34.1107 14.3313 33.6415 13.7079 33.6415 12.5233C33.6415 11.3232 34.1107 10.6842 34.9864 10.6842ZM45.0946 8.19032C42.4517 8.19032 40.6219 9.92044 40.6219 12.4453C40.6219 14.9704 42.4362 16.7005 45.0634 16.7005C47.6753 16.7005 49.4894 14.9392 49.4894 12.4143C49.4894 9.90477 47.6904 8.19032 45.0946 8.19032ZM45.0321 10.4192C46.1893 10.4192 46.3927 11.5102 46.3927 12.4143C46.3927 13.3026 46.2206 14.4872 45.0634 14.4872C43.9217 14.4872 43.7185 13.3338 43.7185 12.4453C43.7185 11.0893 44.1564 10.4192 45.0321 10.4192ZM58.5342 10.7775C58.3622 8.6736 56.6107 8.19032 54.7023 8.19032C52.1534 8.19032 50.7771 9.07883 50.7771 10.7309C50.7771 12.7104 52.6381 12.9909 54.1551 13.3183C55.2656 13.5677 55.7346 13.5988 55.7346 14.0976C55.7346 14.4872 55.375 14.7365 54.7648 14.7365C53.9675 14.7365 53.6079 14.456 53.5297 13.7859H50.6051C50.7927 16.0302 52.6224 16.6693 54.7023 16.6693C57.2517 16.6693 58.7687 15.625 58.7687 13.8482C58.7687 11.9623 57.111 11.557 55.5783 11.2765C55.2031 11.2141 53.7955 11.1361 53.7955 10.5127C53.7955 10.1853 54.0925 10.0294 54.6397 10.0294C55.3594 10.0294 55.6252 10.201 55.7346 10.7775H58.5342ZM65.5768 8.42419H63.9034V5.94599H60.823V8.42419H59.4936V10.3412H60.823V13.9415C60.823 15.8899 61.6985 16.5756 63.9508 16.5756C64.5918 16.5756 64.8733 16.5601 65.5768 16.5133V14.2844C65.374 14.3156 65.139 14.3156 64.9358 14.3156C63.9821 14.3156 63.9034 14.0039 63.9034 13.2091V10.3412H65.5768V8.42419Z" fill="#3261A3"/>
<path d="M69.8053 8.4242H66.8337V16.4666H69.9303V11.9932C69.9303 11.3077 70.1492 10.5905 70.9778 10.5905C71.76 10.5905 71.9477 11.1673 71.9477 11.8219V16.4666H75.0286V11.9932C75.0286 11.292 75.2319 10.6374 76.0605 10.6374C76.8896 10.6374 77.0459 11.2765 77.0459 11.9311V16.4666H80.1733V11.1828C80.1733 9.35936 79.032 8.19033 77.2179 8.19033C76.1074 8.19033 75.2162 8.62672 74.6216 9.46839C74.1682 8.53323 73.4021 8.19033 72.3385 8.19033C71.2285 8.19033 70.3837 8.61104 69.8053 9.45271V8.4242ZM86.1845 8.19033C83.5414 8.19033 81.7117 9.92045 81.7117 12.4454C81.7117 14.9704 83.5262 16.7005 86.1533 16.7005C88.7647 16.7005 90.5788 14.9392 90.5788 12.4143C90.5788 9.90478 88.7804 8.19033 86.1845 8.19033ZM86.122 10.4192C87.2794 10.4192 87.4827 11.5102 87.4827 12.4143C87.4827 13.3026 87.3107 14.4872 86.1533 14.4872C85.0115 14.4872 84.8082 13.3338 84.8082 12.4454C84.8082 11.0893 85.246 10.4192 86.122 10.4192ZM99.6236 10.7776C99.4516 8.67361 97.7006 8.19033 95.7922 8.19033C93.2433 8.19033 91.867 9.07884 91.867 10.7309C91.867 12.7104 93.728 12.9909 95.245 13.3183C96.3555 13.5677 96.8246 13.5988 96.8246 14.0976C96.8246 14.4872 96.4645 14.7365 95.8547 14.7365C95.0574 14.7365 94.6978 14.456 94.6191 13.7859H91.695C91.8826 16.0302 93.7123 16.6694 95.7922 16.6694C98.3416 16.6694 99.8586 15.625 99.8586 13.8482C99.8586 11.9623 98.2004 11.557 96.6682 11.2765C96.293 11.2141 94.8854 11.1361 94.8854 10.5127C94.8854 10.1853 95.1825 10.0294 95.7297 10.0294C96.4493 10.0294 96.7151 10.201 96.8246 10.7776H99.6236ZM106.667 8.4242H104.993V5.946H101.913V8.4242H100.583V10.3412H101.913V13.9416C101.913 15.8899 102.788 16.5756 105.041 16.5756C105.682 16.5756 105.963 16.5601 106.667 16.5133V14.2845C106.463 14.3156 106.229 14.3156 106.026 14.3156C105.072 14.3156 104.993 14.0039 104.993 13.2091V10.3412H106.667V8.4242Z" fill="#E9C95F"/>
</g>
<defs>
<clipPath id="clip0_2_162">
<rect width="106.667" height="25" fill="white"/>
</clipPath>
</defs>
</svg>
